<?xml version="1.0" encoding="UTF-8" standalone="no"?>
<!-- Created with Inkscape (http://www.inkscape.org/) -->

<svg
   xmlns:dc="http://purl.org/dc/elements/1.1/"
   xmlns:cc="http://creativecommons.org/ns#"
   xmlns:rdf="http://www.w3.org/1999/02/22-rdf-syntax-ns#"
   xmlns:svg="http://www.w3.org/2000/svg"
   xmlns="http://www.w3.org/2000/svg"
   xmlns:sodipodi="http://sodipodi.sourceforge.net/DTD/sodipodi-0.dtd"
   xmlns:inkscape="http://www.inkscape.org/namespaces/inkscape"
   width="1800"
   height="1200"
   viewBox="0 0 1800 1200"
   id="svg2"
   version="1.1"
   inkscape:version="0.91 r13725"
   sodipodi:docname="biopython_logo.svg"
   inkscape:export-filename="F:\Informatik\biopython_website\assets\images\biopython_logo_xs.png"
   inkscape:export-xdpi="15"
   inkscape:export-ydpi="15">
  <defs
     id="defs4">
    <pattern
       y="0"
       x="0"
       height="6"
       width="6"
       patternUnits="userSpaceOnUse"
       id="EMFhbasepattern" />
  </defs>
  <sodipodi:namedview
     id="base"
     pagecolor="#ffffff"
     bordercolor="#666666"
     borderopacity="1.0"
     inkscape:pageopacity="0.0"
     inkscape:pageshadow="2"
     inkscape:zoom="0.50000001"
     inkscape:cx="1001.1531"
     inkscape:cy="579.40019"
     inkscape:document-units="px"
     inkscape:current-layer="layer1"
     showgrid="false"
     inkscape:window-width="1680"
     inkscape:window-height="987"
     inkscape:window-x="-8"
     inkscape:window-y="-8"
     inkscape:window-maximized="1"
     units="px"
     showguides="false"
     inkscape:guide-bbox="true">
    <sodipodi:guide
       position="899.99998,636.99998"
       orientation="1,0"
       id="guide4150" />
  </sodipodi:namedview>
  <metadata
     id="metadata7">
    <rdf:RDF>
      <cc:Work
         rdf:about="">
        <dc:format>image/svg+xml</dc:format>
        <dc:type
           rdf:resource="http://purl.org/dc/dcmitype/StillImage" />
        <dc:title />
      </cc:Work>
    </rdf:RDF>
  </metadata>
  <g
     inkscape:label="Layer 1"
     inkscape:groupmode="layer"
     id="layer1"
     transform="translate(0,147.63782)">
    <g
       style="font-style:normal;font-variant:normal;font-weight:normal;font-stretch:normal;font-size:312.5px;line-height:125%;font-family:Comfortaa;-inkscape-font-specification:'Comfortaa, Normal';text-align:start;letter-spacing:0px;word-spacing:0px;writing-mode:lr-tb;text-anchor:start;fill:#676767;fill-opacity:1;stroke:none;stroke-width:1px;stroke-linecap:butt;stroke-linejoin:miter;stroke-opacity:1"
       id="text4326">
      <path
         d="m 179.29254,749.57721 q 23.75,0 42.8125,11.5625 19.375,11.25 30.3125,31.25 11.25,19.6875 11.25,44.0625 0,24.375 -11.5625,44.375 -11.25,20 -31.25,31.5625 -19.6875,11.25 -44.0625,11.25 -24.375,0 -44.375,-11.25 -19.6875,-11.5625 -31.25,-31.5625 -11.250002,-20 -11.250002,-44.375 l 0,-73.4375 q 0,-1.875 0.3125,-2.8125 l 0,-70 q 0,-5.3125 3.125,-8.75 3.4375,-3.4375 8.750002,-3.4375 5.3125,0 8.75,3.4375 3.4375,3.4375 3.4375,8.75 l 0,91.5625 q 10.9375,-15 27.8125,-23.4375 16.875,-8.75 37.1875,-8.75 z m -2.5,152.1875 q 17.8125,0 32.1875,-8.4375 14.6875,-8.75 22.8125,-23.4375 8.4375,-15 8.4375,-33.4375 0,-18.4375 -8.4375,-33.125 -8.125,-15 -22.8125,-23.4375 -14.375,-8.4375 -32.1875,-8.4375 -24.6875,0 -42.1875,15.625 -17.1875,15.625 -20.3125,40 0,0.9375 -0.3125,1.5625 -0.3125,2.5 -0.3125,7.8125 0,18.4375 8.125,33.4375 8.4375,14.6875 22.8125,23.4375 14.375,8.4375 32.1875,8.4375 z"
         style="font-style:normal;font-variant:normal;font-weight:normal;font-stretch:normal;font-size:312.5px;line-height:125%;font-family:Comfortaa;-inkscape-font-specification:'Comfortaa, Normal';text-align:start;writing-mode:lr-tb;text-anchor:start"
         id="path4148" />
      <path
         d="m 328.0523,922.07721 q -5.3125,0 -8.75,-3.4375 -3.4375,-3.4375 -3.4375,-8.75 l 0,-146.5625 q 0,-5.3125 3.4375,-8.75 3.4375,-3.4375 8.75,-3.4375 5.3125,0 8.4375,3.4375 3.4375,3.4375 3.4375,8.75 l 0,146.5625 q 0,5.3125 -3.4375,8.75 -3.125,3.4375 -8.4375,3.4375 z m -0.3125,-203.4375 q -7.1875,0 -12.1875,-5 -4.6875,-5 -4.6875,-12.1875 0,-7.5 5,-12.1875 5,-4.6875 12.1875,-4.6875 6.875,0 11.875,4.6875 5,4.6875 5,12.1875 0,7.1875 -5,12.1875 -5,5 -12.1875,5 z"
         style="font-style:normal;font-variant:normal;font-weight:normal;font-stretch:normal;font-size:312.5px;line-height:125%;font-family:Comfortaa;-inkscape-font-specification:'Comfortaa, Normal';text-align:start;writing-mode:lr-tb;text-anchor:start"
         id="path4150" />
      <path
         d="m 479.00933,923.63971 q -24.6875,0 -44.6875,-11.25 -19.6875,-11.25 -30.9375,-30.9375 -11.25,-20 -11.25,-44.6875 0,-24.6875 11.25,-44.6875 11.25,-20 30.9375,-31.25 20,-11.25 44.6875,-11.25 24.6875,0 44.375,11.25 19.6875,11.25 30.9375,31.25 11.5625,20 11.5625,44.6875 0,24.6875 -11.25,44.6875 -11.25,19.6875 -31.25,30.9375 -19.6875,11.25 -44.375,11.25 z m 0,-21.875 q 18.125,0 32.5,-8.4375 14.375,-8.4375 22.5,-23.125 8.125,-15 8.125,-33.4375 0,-18.75 -8.125,-33.4375 -8.125,-15 -22.5,-23.4375 -14.375,-8.4375 -32.5,-8.4375 -17.8125,0 -32.5,8.4375 -14.375,8.4375 -22.8125,23.4375 -8.125,14.6875 -8.125,33.4375 0,18.4375 8.125,33.4375 8.4375,14.6875 22.8125,23.125 14.6875,8.4375 32.5,8.4375 z"
         style="font-style:normal;font-variant:normal;font-weight:normal;font-stretch:normal;font-size:312.5px;line-height:125%;font-family:Comfortaa;-inkscape-font-specification:'Comfortaa, Normal';text-align:start;writing-mode:lr-tb;text-anchor:start"
         id="path4152" />
      <path
         d="m 699.86383,749.57721 q 24.375,0 44.0625,11.5625 20,11.25 31.25,31.25 11.5625,20 11.5625,44.375 0,24.375 -11.25,44.375 -10.9375,19.6875 -30.3125,31.25 -19.0625,11.25 -42.8125,11.25 -20.3125,0 -37.1875,-8.4375 -16.875,-8.75 -27.8125,-23.75 l 0,91.5625 q 0,5.3125 -3.4375,8.75 -3.4375,3.4375 -8.75,3.4375 -5.3125,0 -8.75,-3.4375 -3.125,-3.4375 -3.125,-8.75 l 0,-70 q -0.3125,-0.9375 -0.3125,-2.8125 l 0,-73.4375 q 0,-24.375 11.25,-44.375 11.5625,-20 31.25,-31.25 20,-11.5625 44.375,-11.5625 z m 0,152.1875 q 17.8125,0 32.1875,-8.4375 14.6875,-8.4375 22.8125,-23.125 8.4375,-15 8.4375,-33.4375 0,-18.4375 -8.4375,-33.125 -8.125,-15 -22.8125,-23.4375 -14.375,-8.75 -32.1875,-8.75 -17.8125,0 -32.1875,8.75 -14.375,8.4375 -22.8125,23.4375 -8.125,14.6875 -8.125,33.125 0,5.3125 0.3125,7.8125 0.3125,0.625 0.3125,1.5625 3.125,24.375 20.3125,40 17.5,15.625 42.1875,15.625 z"
         style="font-style:normal;font-variant:normal;font-weight:normal;font-stretch:normal;font-size:312.5px;line-height:125%;font-family:Comfortaa;-inkscape-font-specification:'Comfortaa, Normal';text-align:start;writing-mode:lr-tb;text-anchor:start"
         id="path4154" />
      <path
         d="m 964.02398,752.07721 q 7.1875,2.8125 7.1875,9.0625 0,2.8125 -1.25,5.625 l -101.25,222.5 q -2.8125,7.1875 -9.0625,7.1875 -3.125,0 -5.625,-1.25 -7.1875,-2.8125 -7.1875,-9.375 0,-2.8125 1.25,-5.625 l 30.9375,-68.4375 0,-0.3125 -69.6875,-144.375 q -1.25,-2.5 -1.25,-5.625 0,-6.5625 6.875,-9.375 2.5,-1.25 5.625,-1.25 6.5625,0 9.375,6.5625 l 60.9375,128.4375 58.125,-128.125 q 3.125,-6.875 9.375,-6.875 2.8125,0 5.625,1.25 z"
         style="font-style:normal;font-variant:normal;font-weight:normal;font-stretch:normal;font-size:312.5px;line-height:125%;font-family:Comfortaa;-inkscape-font-specification:'Comfortaa, Normal';text-align:start;writing-mode:lr-tb;text-anchor:start"
         id="path4156" />
      <path
         d="m 1077.0953,898.01471 q 5,0 8.125,3.4375 3.125,3.4375 3.125,8.75 0,5 -3.75,8.4375 -3.75,3.4375 -9.375,3.4375 l -6.5625,0 q -16.5625,0 -29.6875,-7.8125 -13.125,-8.125 -20.625,-21.5625 -7.1875,-13.75 -7.1875,-30.9375 l 0,-83.4375 -20.31253,0 q -5,0 -8.125,-2.8125 -2.8125,-3.125 -2.8125,-7.5 0,-4.6875 2.8125,-7.5 3.125,-3.125 8.125,-3.125 l 20.31253,0 0,-48.4375 q 0,-5.3125 3.125,-8.75 3.4375,-3.4375 8.75,-3.4375 5.3125,0 8.75,3.4375 3.4375,3.4375 3.4375,8.75 l 0,48.4375 35.3125,0 q 5,0 7.8125,3.125 3.125,2.8125 3.125,7.5 0,4.375 -3.125,7.5 -2.8125,2.8125 -7.8125,2.8125 l -35.3125,0 0,83.4375 q 0,15.9375 9.375,26.25 9.375,10 24.0625,10 l 8.4375,0 z"
         style="font-style:normal;font-variant:normal;font-weight:normal;font-stretch:normal;font-size:312.5px;line-height:125%;font-family:Comfortaa;-inkscape-font-specification:'Comfortaa, Normal';text-align:start;writing-mode:lr-tb;text-anchor:start"
         id="path4158" />
      <path
         d="m 1208.4527,749.26471 q 22.1875,0 39.6875,9.375 17.8125,9.375 27.8125,27.5 10,17.8125 10,42.8125 l 0,81.25 q 0,5 -3.4375,8.4375 -3.4375,3.4375 -8.4375,3.4375 -5.3125,0 -8.75,-3.4375 -3.4375,-3.4375 -3.4375,-8.4375 l 0,-81.25 q 0,-27.8125 -15.625,-42.1875 -15.3125,-14.6875 -40.3125,-14.6875 -15.3125,0 -27.8125,5.9375 -12.1875,5.9375 -19.375,16.5625 -7.1875,10.3125 -7.1875,23.125 l 0,92.5 q 0,5.3125 -3.4375,8.75 -3.125,3.125 -8.4375,3.125 -5.3125,0 -8.75,-3.125 -3.4375,-3.4375 -3.4375,-8.75 l 0,-220 q 0,-5.3125 3.4375,-8.75 3.4375,-3.4375 8.75,-3.4375 5.3125,0 8.4375,3.4375 3.4375,3.4375 3.4375,8.75 l 0,83.75 q 10.3125,-11.5625 25,-18.125 14.6875,-6.5625 31.875,-6.5625 z"
         style="font-style:normal;font-variant:normal;font-weight:normal;font-stretch:normal;font-size:312.5px;line-height:125%;font-family:Comfortaa;-inkscape-font-specification:'Comfortaa, Normal';text-align:start;writing-mode:lr-tb;text-anchor:start"
         id="path4160" />
      <path
         d="m 1417.1197,923.63971 q -24.6875,0 -44.6875,-11.25 -19.6875,-11.25 -30.9375,-30.9375 -11.25,-20 -11.25,-44.6875 0,-24.6875 11.25,-44.6875 11.25,-20 30.9375,-31.25 20,-11.25 44.6875,-11.25 24.6875,0 44.375,11.25 19.6875,11.25 30.9375,31.25 11.5625,20 11.5625,44.6875 0,24.6875 -11.25,44.6875 -11.25,19.6875 -31.25,30.9375 -19.6875,11.25 -44.375,11.25 z m 0,-21.875 q 18.125,0 32.5,-8.4375 14.375,-8.4375 22.5,-23.125 8.125,-15 8.125,-33.4375 0,-18.75 -8.125,-33.4375 -8.125,-15 -22.5,-23.4375 -14.375,-8.4375 -32.5,-8.4375 -17.8125,0 -32.5,8.4375 -14.375,8.4375 -22.8125,23.4375 -8.125,14.6875 -8.125,33.4375 0,18.4375 8.125,33.4375 8.4375,14.6875 22.8125,23.125 14.6875,8.4375 32.5,8.4375 z"
         style="font-style:normal;font-variant:normal;font-weight:normal;font-stretch:normal;font-size:312.5px;line-height:125%;font-family:Comfortaa;-inkscape-font-specification:'Comfortaa, Normal';text-align:start;writing-mode:lr-tb;text-anchor:start"
         id="path4162" />
      <path
         d="m 1632.0367,749.26471 q 22.1875,0 39.6875,9.375 17.8125,9.375 27.8125,27.5 10,17.8125 10,42.8125 l 0,81.25 q 0,5 -3.4375,8.4375 -3.4375,3.4375 -8.4375,3.4375 -5.3125,0 -8.75,-3.4375 -3.4375,-3.4375 -3.4375,-8.4375 l 0,-81.25 q 0,-27.8125 -15.625,-42.1875 -15.3125,-14.6875 -40.3125,-14.6875 -15.3125,0 -27.8125,5.9375 -12.1875,5.9375 -19.375,16.5625 -7.1875,10.3125 -7.1875,23.125 l 0,92.5 q 0,5.3125 -3.4375,8.75 -3.125,3.125 -8.4375,3.125 -5.3125,0 -8.75,-3.125 -3.4375,-3.4375 -3.4375,-8.75 l 0,-146.875 q 0,-5.3125 3.4375,-8.75 3.4375,-3.4375 8.75,-3.4375 5.3125,0 8.4375,3.4375 3.4375,3.4375 3.4375,8.75 l 0,10.625 q 10.3125,-11.5625 25,-18.125 14.6875,-6.5625 31.875,-6.5625 z"
         style="font-style:normal;font-variant:normal;font-weight:normal;font-stretch:normal;font-size:312.5px;line-height:125%;font-family:Comfortaa;-inkscape-font-specification:'Comfortaa, Normal';text-align:start;writing-mode:lr-tb;text-anchor:start"
         id="path4164" />
    </g>
    <g
       id="g4359"
       transform="translate(2,6)">
      <g
         id="g4477">
        <path
           inkscape:connector-curvature="0"
           id="path4194"
           d="m 444.63716,-56.396184 c -14.88031,-1.294464 -28.46687,1.294462 -40.43553,6.146173 -23.29114,9.057568 -40.75943,23.291 -54.99261,36.553966 -22.96763,21.996994 -38.49504,46.581691 -52.40509,68.255457 -19.40883,30.73133 -32.67181,61.785728 -46.25831,89.282288 l 0,0 0,0 c -17.4679,35.2598 -32.99535,70.51961 -48.84631,104.16234 l 0,0 0,0 c 0,0 -21.35022,44.96444 -30.08396,63.72666 -11.64556,25.55516 -22.96775,52.40479 -32.6724,71.48916 -9.70464,19.08591 -12.2925,25.23208 -25.87854,46.5823 -13.586504,21.35023 -48.050254,9.08088 -58.845986,44.98651 -24.154537,80.33581 -27.420491,100.62475 2.098433,119.60925 33.84722,21.22088 50.800803,13.78289 115.621853,-49.26892 26.8452,-26.1125 0.9705,-48.68817 13.90962,-69.06792 12.93958,-20.37976 18.76237,-32.02533 30.0844,-53.69909 10.99867,-21.67377 23.2907,-51.43325 33.9658,-74.40101 8.41082,-17.79175 29.76104,-63.07975 29.76104,-63.07975 l 0,0 c 16.4979,-35.25981 32.02486,-69.873 48.19922,-103.19187 14.55698,-29.76087 27.17256,-57.5805 41.72957,-80.87165 13.26312,-21.02622 25.87911,-39.141662 39.14212,-51.757702 9.70412,-9.381108 19.40882,-16.174362 27.17253,-19.085295 0.64641,-0.323998 1.61755,-0.323998 0.64641,-0.323998 7.11684,0.646461 15.20411,3.55801 19.73284,6.469408 18.43768,12.93942 35.25888,38.495042 55.31526,68.255447 19.73273,29.76102 35.26015,66.63822 54.34599,105.77988 27.49644,56.61004 52.40513,116.13145 80.87199,175.32842 12.61601,26.84947 25.23213,55.96342 42.05354,85.40089 10.9987,19.4093 23.6147,38.17166 36.8777,55.96341 7.11671,9.70464 16.82142,27.173 37.52457,42.70044 17.14497,12.93958 43.02398,34.61334 83.13652,32.9958 42.37687,-1.6174 68.57525,-27.17302 86.36698,-43.02383 31.37846,-27.82008 46.25884,-60.49235 60.81583,-83.45997 10.99856,-17.7919 21.02676,-35.90717 29.76086,-53.69909 13.263,-25.879 23.6147,-51.10985 34.2899,-74.07746 7.7637,-16.82144 25.2321,-53.69864 27.4964,-59.1979 l 0.3238,0 1.9411,-4.52893 c 0,0 32.0253,-69.873 48.1998,-102.54479 14.5569,-29.76102 26.8494,-57.90403 41.73,-81.19519 13.263,-20.702832 25.5554,-39.141668 39.1419,-51.757707 9.7047,-9.381109 19.4093,-16.17435 27.1731,-19.085296 0.6463,-0.323998 1.6175,-0.323998 0.6463,-0.323998 7.1169,0.646474 14.8806,3.558023 19.4094,6.792802 18.4388,12.616039 35.5838,38.171662 55.3165,67.932069 20.0563,29.76101 35.2603,66.96175 54.346,105.77989 27.82,56.61001 52.7287,116.13144 81.1957,175.65194 32.6722,79.5781 111.9225,180.8298 141.3601,185.35874 6.7931,-29.76101 -27.4964,-146.54015 -63.7274,-222.55856 -27.173,-56.93356 -52.0772,-116.77838 -81.1911,-176.29979 -17.4685,-35.58335 -33.9663,-76.342871 -60.1689,-115.807918 -18.4389,-27.81963 -39.4655,-64.3737499 -77.9606,-90.89953 -18.7623,-13.262965 -39.7891,-20.056217 -60.8159,-21.996993 -14.5569,-1.294463 -28.1434,1.294463 -40.1124,6.146174 -23.2912,9.057568 -40.7594,23.290998 -54.9932,36.877198 -22.9675,21.6737612 -38.8185,46.582001 -52.405,67.932222 -19.4092,30.73133 -32.9958,61.785737 -46.5824,89.282287 -16.8211,34.28934 -43.9942,94.45769 -46.5822,100.28048 -0.3241,0 -0.3241,0.64646 -0.6465,0.64646 l -1.6173,3.55832 c 0,0 -21.02678,44.64092 -29.76088,63.4033 -11.64559,25.55515 -21.67374,49.81677 -32.67246,71.81268 -8.41058,16.17437 -16.8213,32.02534 -26.20256,46.25877 -17.78743,28.46701 -30.72699,52.40509 -44.96042,65.02113 -15.85099,14.23343 -30.08443,21.35022 -32.67229,21.67376 -0.32402,0 -12.616,-4.85232 -28.14353,-16.17451 -2.91131,-1.94093 -9.38126,-10.9985 -20.05627,-24.90854 C 783.6516,460.20873 773.29991,444.35776 763.91877,428.18341 750.33233,404.24517 738.36321,377.07216 724.77665,348.60653 697.60366,291.34956 672.37164,231.82815 643.25767,172.30672 625.78926,136.72352 609.2914,95.964016 583.41239,56.498806 564.64999,28.679327 543.62339,-7.8747858 505.45171,-34.724105 486.68942,-47.663531 465.66399,-54.456631 444.63716,-56.397561 Z"
           style="fill:#37709f;fill-opacity:1;fill-rule:nonzero;stroke:none"
           sodipodi:nodetypes="cccccccccccccscsccccccccccccccccccccccccccccccccccccccccccccccccccccccccccccc" />
        <path
           inkscape:connector-curvature="0"
           id="path4196"
           d="m 76.229438,529.48072 c 0,3.55832 -2.911403,6.46971 -6.469726,6.46971 -3.558312,0 -6.469709,-2.91139 -6.469709,-6.46971 0,-3.55833 2.911397,-6.46971 6.469709,-6.46971 3.558323,0 6.469726,2.91138 6.469726,6.46971 z"
           style="fill:#ffffff;fill-opacity:1;fill-rule:nonzero;stroke:none" />
        <path
           inkscape:connector-curvature="0"
           id="path4198"
           d="m 115.8937,555.27623 c 0,3.5583 -2.58785,6.46971 -6.4697,6.46971 -3.55832,0 -6.46973,-2.91141 -6.46973,-6.46971 0,-3.55848 2.91141,-6.46988 6.46973,-6.46988 3.88185,0 6.4697,2.9114 6.4697,6.46988 z"
           style="fill:#ffffff;fill-opacity:1;fill-rule:nonzero;stroke:none" />
      </g>
      <g
         id="g4345"
         transform="matrix(-0.97202112,0,0,-0.97202112,1813.9084,527.05222)">
        <path
           style="fill:#ffd141;fill-opacity:1;fill-rule:nonzero;stroke:none"
           d="m 1711.0645,87.375 c -19.9771,0.328302 -41.9192,17.58628 -85.4707,59.94922 -26.8453,26.11249 -0.9711,48.68861 -13.9102,69.06836 -12.9396,20.37976 -18.762,32.02546 -30.084,53.69922 -10.9987,21.67376 -23.2917,51.43263 -33.9668,74.40039 -8.4108,17.79175 -29.7598,63.08008 -29.7598,63.08008 -4.1548,8.87976 -8.2472,17.71655 -12.3046,26.5039 9.4494,20.99371 18.8907,41.77261 28.625,62.16797 6.1441,12.89129 12.2267,26.96756 18.0683,41.58008 15.3516,-31.64777 29.3364,-63.1642 43.5703,-93.375 0,0 21.3503,-44.96435 30.084,-63.72656 11.6456,-25.55517 22.9692,-52.40392 32.6738,-71.48828 9.7047,-19.08592 12.291,-25.23182 25.877,-46.58204 13.5865,-21.35023 48.05,-9.08264 58.8457,-44.98828 24.1545,-80.33581 27.4213,-100.62488 -2.0977,-119.609372 -11.1061,-6.963103 -20.3941,-10.840022 -30.1503,-10.679688 z m -756.2227,2.449219 c -1.22589,0.006 -2.46524,0.03344 -3.71875,0.08398 -42.37687,1.617395 -68.57351,27.174581 -86.36524,43.025391 -31.37846,27.82008 -46.25942,60.49136 -60.8164,83.45899 -10.99852,17.79189 -21.02763,35.9073 -29.76172,53.69922 -13.26304,25.879 -23.61384,51.11051 -34.28907,74.07812 -7.76371,16.82144 -25.23177,53.69801 -27.49609,59.19727 l -0.32422,0 -1.9414,4.52929 c 0,0 -5.3459,11.61816 -12.04883,26.09571 9.49504,20.9685 18.97201,41.7596 28.69726,62.25195 6.52654,13.67396 12.67813,27.03649 18.81641,39.89844 16.607,-34.70281 38.25853,-82.64 40.55664,-87.81055 0.32407,0 0.32407,-0.64648 0.64649,-0.64648 l 1.61718,-3.5586 c 0,0 21.02567,-44.63996 29.75977,-63.40234 11.64559,-25.55516 21.67315,-49.81659 32.67187,-71.8125 8.41059,-16.17436 16.82187,-32.02633 26.20313,-46.25977 17.78743,-28.46701 30.7275,-52.40544 44.96094,-65.02148 15.85098,-14.23343 30.08401,-21.35028 32.67187,-21.67383 0.32402,0 12.617,4.85359 28.14453,16.17578 2.91131,1.94092 9.37963,10.99817 20.05473,24.90821 10.9985,15.20389 21.3512,31.05416 30.7324,47.22851 13.5864,23.93824 25.556,51.11249 39.1426,79.57813 27.173,57.25695 52.4036,116.7774 81.5175,176.29882 17.4685,35.5832 33.9667,76.34339 59.8457,115.8086 18.7624,27.81948 39.7893,64.37335 77.961,91.22265 18.7623,12.93943 39.7876,19.7329 60.8144,21.67383 l 0,-0.002 c 14.8803,1.29446 28.4669,-1.29477 40.4356,-6.14649 23.2911,-9.05755 40.759,-23.28976 54.9922,-36.55273 22.9676,-21.99699 38.4962,-46.58209 52.4062,-68.25586 2.5084,-3.97162 4.9096,-7.94781 7.2266,-11.92187 -19.7711,-28.95189 -38.124,-60.93808 -50.4004,-90.19141 -9.8198,20.28833 -19.2255,39.23816 -29.6113,55.85547 -13.2632,21.02622 -25.8796,39.13982 -39.1426,51.75586 -9.7041,9.38111 -19.4082,16.175 -27.1719,19.08594 -0.3395,0.17017 -0.7512,0.24876 -0.9414,0.2871 -7.0451,-0.69811 -14.9705,-3.55991 -19.4375,-6.43164 -18.4377,-12.93942 -35.26,-38.49545 -55.3164,-68.25586 -19.7327,-29.761 -35.2599,-66.63762 -54.3457,-105.77929 -27.4964,-56.61004 -52.4042,-116.13311 -80.8711,-175.33008 -12.616,-26.84947 -25.2333,-55.96293 -42.0547,-85.40039 -10.9987,-19.4093 -23.6139,-38.17114 -36.8769,-55.96289 -7.1168,-9.70464 -16.8223,-27.17374 -37.5254,-42.70117 -16.6093,-12.53523 -41.41556,-33.267142 -79.418,-33.080085 z M 201.60938,121.28711 c -6.79307,29.76101 27.49749,146.54019 63.72851,222.55859 27.17295,56.93356 52.07753,116.77938 81.19141,176.30078 17.46848,35.58336 33.96539,76.34355 60.16797,115.8086 18.43885,27.81963 39.46588,64.37266 77.96093,90.89844 18.76234,13.26296 39.78955,20.05727 60.81641,21.99804 14.55689,1.29447 28.14235,-1.29477 40.11133,-6.14648 23.29118,-9.05757 40.76035,-23.29076 54.99414,-36.87696 22.9675,-21.67375 38.81787,-46.58337 52.4043,-67.93359 1.62506,-2.57304 3.19532,-5.14737 4.74218,-7.72265 -2.34071,-3.85751 -4.64016,-7.73566 -6.85742,-11.64844 -16.33937,-28.59391 -28.709,-56.86565 -40.9668,-83.07032 -9.75664,20.40928 -19.07396,39.54678 -29.70312,56.1836 -13.26304,20.70283 -25.55606,39.14177 -39.14258,51.75781 -9.70466,9.38111 -19.40805,16.17304 -27.17187,19.08399 -0.33131,0.16608 -0.73891,0.24766 -0.93555,0.2871 -7.03774,-0.69744 -14.65316,-3.56451 -19.1211,-6.75585 -18.43884,-12.61604 -35.58369,-38.17124 -55.3164,-67.93165 -20.0563,-29.761 -35.25997,-66.96115 -54.3457,-105.77929 C 396.34599,425.68881 371.4377,366.16698 342.9707,306.64648 310.29845,227.0684 231.04693,125.81605 201.60938,121.28711 Z"
           transform="matrix(-1.0287842,0,0,-1.0287842,1868.1779,694.11047)"
           id="path4353"
           inkscape:connector-curvature="0" />
        <path
           style="fill:#ffffff;fill-opacity:1;fill-rule:nonzero;stroke:none"
           d="m 97.329163,526.44661 c 0,3.66074 -2.995206,6.65593 -6.655952,6.65593 -3.660735,0 -6.655935,-2.99519 -6.655935,-6.65593 0,-3.66075 2.9952,-6.65594 6.655935,-6.65594 3.660746,0 6.655952,2.99519 6.655952,6.65594 z"
           id="path4355"
           inkscape:connector-curvature="0" />
        <path
           style="fill:#ffffff;fill-opacity:1;fill-rule:nonzero;stroke:none"
           d="m 138.13513,552.98462 c 0,3.66073 -2.66234,6.65594 -6.65593,6.65594 -3.66074,0 -6.65595,-2.99521 -6.65595,-6.65594 0,-3.6609 2.99521,-6.65611 6.65595,-6.65611 3.99359,0 6.65593,2.99521 6.65593,6.65611 z"
           id="path4357"
           inkscape:connector-curvature="0" />
      </g>
      <g
         transform="matrix(-0.97202112,0,0,-0.97202112,1813.9084,527.05222)"
         id="g4392" />
    </g>
  </g>
</svg>
